<?xml version="1.0" encoding="UTF-8"?>
<svg id="Layer_2" data-name="Layer 2" xmlns="http://www.w3.org/2000/svg" viewBox="0 0 61.12 51.2">
  <defs>
    <style>
      .cls-1 {
        fill: #222;
      }
    </style>
  </defs>
  <g id="Working_Layer" data-name="Working Layer">
    <g>
      <path class="cls-1" d="M0,0h6.56v14.71c1.87-3.14,5.29-4.96,9.48-4.96,7.11,0,12.84,5.73,12.84,15.43s-5.73,15.49-12.84,15.49c-4.19,0-7.61-1.82-9.48-5.02v4.3H0V0ZM21.88,25.19c0-6.45-3.2-10.09-7.77-10.09-4.13,0-7.83,2.92-7.83,10.09s3.69,10.14,7.83,10.14c4.57,0,7.77-3.64,7.77-10.14Z"/>
      <path class="cls-1" d="M61.12,10.75l-.94,4.85-6.5-2.48c1.76,1.43,2.65,3.47,2.65,5.9,0,6.28-5.62,11.08-12.62,11.08-2.48,0-4.46-.5-6.01-1.32-1.43.99-1.76,1.6-1.76,2.7,0,1.71,1.49,2.26,5.35,2.37l4.68.22c6.83.28,9.53,2.15,9.53,6.23,0,5.68-7.11,10.91-16.31,10.91-5.9,0-9.7-2.04-9.7-5.68,0-2.87,1.54-4.79,4.3-6.23-1.32-.88-2.04-2.09-2.04-3.75,0-2.65,1.71-5.07,5.29-7.16-1.98-1.43-2.98-3.53-2.98-6.06,0-6.45,5.46-11.13,12.57-11.13,2.65,0,4.74.5,6.28,1.43l8.21-1.87ZM40.4,40.84c-2.48-.11-4.46-.5-5.9-1.16-2.59,1.27-4.02,2.92-4.02,5.46,0,3.36,3.42,5.18,8.93,5.18,6.89,0,10.69-2.37,10.69-5.9,0-2.43-1.43-3.25-4.63-3.42l-5.07-.17ZM48.55,23.04c0-5.95-2.09-10.75-4.74-10.75-1.49,0-2.09,2.04-2.09,6.01,0,5.84,2.09,10.75,4.63,10.75,1.49,0,2.2-2.26,2.2-6.01Z"/>
    </g>
  </g>
</svg>