<?xml version="1.0" encoding="UTF-8"?>
<svg id="Layer_2" xmlns="http://www.w3.org/2000/svg" version="1.1" viewBox="0 0 100 100">
  <!-- Generator: Adobe Illustrator 30.1.0, SVG Export Plug-In . SVG Version: 2.1.1 Build 136)  -->
  <defs>
    <style>
      .st0 {
        fill: #fff;
      }

      .st1 {
        fill: #222;
      }
    </style>
  </defs>
  <circle class="st1" cx="50" cy="50" r="45"/>
  <g id="Working_Layer">
    <g>
      <path class="st0" d="M23,27.4h5.8v13c1.6-2.8,4.7-4.4,8.4-4.4,6.3,0,11.3,5.1,11.3,13.6s-5.1,13.7-11.3,13.7-6.7-1.6-8.4-4.4v3.8h-5.8V27.4ZM42.3,49.6c0-5.7-2.8-8.9-6.9-8.9s-6.9,2.6-6.9,8.9,3.3,8.9,6.9,8.9,6.9-3.2,6.9-8.9Z"/>
      <path class="st0" d="M77,36.9l-.8,4.3-5.7-2.2c1.6,1.3,2.3,3.1,2.3,5.2,0,5.5-5,9.8-11.1,9.8s-3.9-.4-5.3-1.2c-1.3.9-1.6,1.4-1.6,2.4,0,1.5,1.3,2,4.7,2.1l4.1.2c6,.2,8.4,1.9,8.4,5.5s-6.3,9.6-14.4,9.6-8.6-1.8-8.6-5,1.4-4.2,3.8-5.5c-1.2-.8-1.8-1.8-1.8-3.3,0-2.3,1.5-4.5,4.7-6.3-1.7-1.3-2.6-3.1-2.6-5.3,0-5.7,4.8-9.8,11.1-9.8s4.2.4,5.5,1.3l7.2-1.6h0ZM58.7,63.4c-2.2,0-3.9-.4-5.2-1-2.3,1.1-3.5,2.6-3.5,4.8s3,4.6,7.9,4.6,9.4-2.1,9.4-5.2-1.3-2.9-4.1-3h-4.5c0-.1,0-.1,0-.1ZM65.9,47.7c0-5.2-1.8-9.5-4.2-9.5s-1.8,1.8-1.8,5.3c0,5.2,1.8,9.5,4.1,9.5s1.9-2,1.9-5.3Z"/>
    </g>
  </g>
</svg>