<?xml version="1.0" encoding="UTF-8"?>
<svg id="Layer_2" data-name="Layer 2" xmlns="http://www.w3.org/2000/svg" viewBox="0 0 626.77 80.88">
  <defs>
    <style>
      .cls-1 {
        fill: #fff;
      }
    </style>
  </defs>
  <g id="Layer_1-2" data-name="Layer 1">
    <g>
      <path class="cls-1" d="M12.31.73h10.85v17c3.08-.73,6.31-1.13,9.63-1.13,16.84,0,27.29,9.39,27.29,24.45s-10.61,24.45-27.93,24.45H12.31v-32.55c-2.1,1.54-4.29,3.24-6.48,5.18L0,31.01c4.05-3.81,8.18-6.8,12.31-9.07V.73ZM23.16,56.27h8.5c10.93,0,17.08-5.59,17.08-15.14s-6.15-15.63-16.35-15.63c-3.08,0-6.15.57-9.23,1.62v29.15Z"/>
      <path class="cls-1" d="M76.83,44.12v21.37h-10.85V17.33h10.69v9.47c3-6.07,9.31-9.47,17.49-9.47h3.24v9.8h-5.02c-10.28,0-15.54,5.75-15.54,17Z"/>
      <path class="cls-1" d="M102.73,45.26v-27.93h10.85v25.67c0,8.83,4.62,14.17,12.55,14.17,8.66,0,14.01-6.48,14.01-17v-22.83h10.85v48.17h-10.69v-8.26c-2.83,5.59-9.39,8.99-17.49,8.99-12.55,0-20.08-7.93-20.08-20.97Z"/>
      <path class="cls-1" d="M208.06,37.97v27.53h-10.85v-25.99c0-8.5-4.7-13.84-12.47-13.84-8.58,0-14.49,6.72-14.49,16.52v23.32h-10.85V17.33h10.69v8.26c3.16-5.59,9.8-8.99,17.89-8.99,12.55,0,20.08,8.1,20.08,21.37Z"/>
      <path class="cls-1" d="M237.85,16.6c14.9,0,23.8,7.21,23.8,19.11v29.79h-10.61v-8.83c-3,6.07-10.04,9.55-19.43,9.55-11.58,0-18.54-5.34-18.54-14.01s7.53-14.57,21.21-15.63l16.44-1.21v-.65c-.57-5.99-5.34-9.47-12.95-9.47-6.4,0-10.69,2.51-11.82,6.88h-11.09c1.38-9.8,9.8-15.54,22.99-15.54ZM250.81,45.02v-1.46l-15.95,1.21c-6.88.57-10.61,3.08-10.61,7.12,0,3.72,3.32,5.83,9.47,5.83,9.88,0,16.68-5.02,17.08-12.71Z"/>
      <path class="cls-1" d="M339.05,25.1v-7.77h10.69v42.51c0,13.36-9.15,21.05-25.1,21.05-13.76,0-22.1-5.75-24.05-16.44h11.42c1.13,4.86,5.83,7.69,12.71,7.69,8.99,0,14.09-4.7,14.09-12.87v-6.07c-3.08,5.18-9.71,8.26-17.33,8.26-13.36,0-22.91-9.47-22.91-22.51s9.47-22.35,22.99-22.35c7.69,0,14.09,3.16,17.49,8.5ZM339.05,39.02c0-7.69-6.4-13.52-15.14-13.52s-14.01,5.42-14.01,13.44,5.67,13.6,14.17,13.6,14.98-5.83,14.98-13.52Z"/>
      <path class="cls-1" d="M357.67,45.26v-27.93h10.85v25.67c0,8.83,4.62,14.17,12.55,14.17,8.66,0,14.01-6.48,14.01-17v-22.83h10.85v48.17h-10.69v-8.26c-2.83,5.59-9.39,8.99-17.49,8.99-12.55,0-20.08-7.93-20.08-20.97Z"/>
      <path class="cls-1" d="M436.12,16.6c14.9,0,23.8,7.21,23.8,19.11v29.79h-10.61v-8.83c-3,6.07-10.04,9.55-19.43,9.55-11.58,0-18.54-5.34-18.54-14.01s7.53-14.57,21.21-15.63l16.44-1.21v-.65c-.57-5.99-5.34-9.47-12.95-9.47-6.4,0-10.69,2.51-11.82,6.88h-11.09c1.38-9.8,9.8-15.54,22.99-15.54ZM449.07,45.02v-1.46l-15.95,1.21c-6.88.57-10.61,3.08-10.61,7.12,0,3.72,3.32,5.83,9.47,5.83,9.88,0,16.68-5.02,17.08-12.71Z"/>
      <path class="cls-1" d="M478.86,44.12v21.37h-10.85V17.33h10.69v9.47c3-6.07,9.31-9.47,17.49-9.47h3.24v9.8h-5.02c-10.28,0-15.54,5.75-15.54,17Z"/>
      <path class="cls-1" d="M517.16,6.32c0,3.56-2.91,6.4-6.56,6.4s-6.56-2.83-6.56-6.4,2.92-6.32,6.56-6.32,6.56,2.83,6.56,6.32ZM505.17,17.33h10.85l-.08,48.17h-10.77V17.33Z"/>
      <path class="cls-1" d="M565.17,17.33l4.05,7.12-31.17,33.52c2.67-1.05,5.91-1.46,10.85-1.46h20v8.99h-26.15c-6.07,0-11.66,1.13-16.27,3.4l-5.18-7.53,32.55-35.06h-30.12v-8.99h41.45Z"/>
      <path class="cls-1" d="M571.72,41.45c0-14.57,11.25-24.86,27.61-24.86s27.45,10.28,27.45,24.86-11.17,24.77-27.45,24.77-27.61-10.2-27.61-24.77ZM615.52,41.45c0-9.23-6.72-15.95-16.19-15.95s-16.27,6.72-16.27,15.95,6.72,15.87,16.27,15.87,16.19-6.64,16.19-15.87Z"/>
    </g>
  </g>
</svg>