<?xml version="1.0" encoding="UTF-8"?>
<svg id="Layer_2" xmlns="http://www.w3.org/2000/svg" version="1.1" viewBox="0 0 343.5 53.9">
  <!-- Generator: Adobe Illustrator 30.1.0, SVG Export Plug-In . SVG Version: 2.1.1 Build 136)  -->
  <defs>
    <style>
      .st0 {
        fill: #fff;
      }
    </style>
  </defs>
  <g id="Working_Layer">
    <g>
      <path class="st0" d="M0,2.7h6.6v14.7c1.9-3.1,5.3-5,9.5-5,7.1,0,12.8,5.7,12.8,15.4s-5.7,15.5-12.8,15.5-7.6-1.8-9.5-5v4.3H0V2.7ZM21.9,27.9c0-6.5-3.2-10.1-7.8-10.1s-7.8,2.9-7.8,10.1,3.7,10.1,7.8,10.1,7.8-3.6,7.8-10.1Z"/>
      <path class="st0" d="M35,13h6.4v5.4c1.4-3.4,4.2-5.4,8.3-5.5.4,0,.9,0,1.4,0v6.7c-1.1-.2-1.9-.2-2.7-.2-4.5,0-6.8,2.2-6.8,8.1v15.3h-6.6s0-29.7,0-29.7Z"/>
      <path class="st0" d="M74.8,38.5c-1.7,2.9-4.3,4.9-9,4.9-7.3,0-9.8-4.6-9.8-11.9V13h6.6v16.8c0,4.5.5,8.2,5.6,8.2s6.7-2.9,6.7-8.9V13h6.6v29.6h-6.6v-4.2Z"/>
      <path class="st0" d="M89.3,13h6.6v4.2c1.5-2.6,4.6-4.8,9.4-4.8,7.3,0,9.9,4.6,9.9,11.8v18.4h-6.6v-16.6c0-4.5-.6-8.3-5.8-8.3s-6.9,3.1-6.9,9.1v15.8h-6.6V13h0Z"/>
      <path class="st0" d="M141.2,42.7c-.2-1.4-.3-2.7-.3-3.9-2,3.1-5.2,4.6-10.1,4.6s-10.2-3.2-10.2-8.6,8-9.3,19.9-10.5v-.7c0-4.6-2.6-6.3-6.1-6.3s-5.9,1.9-6.2,5.2h-6.4c.5-6.1,5.5-10.2,12.7-10.2s12.5,3.7,12.5,12.3v6.7c0,4.6.3,8.6.8,11.4h-6.6ZM140.9,28.8c-8.1.8-13.2,1.9-13.2,5.6s2,4.1,5.1,4.1,8.1-1.9,8.1-8.3v-1.4h0Z"/>
      <path class="st0" d="M180.8,13.4l-.9,4.8-6.5-2.5c1.8,1.4,2.6,3.5,2.6,5.9,0,6.3-5.6,11.1-12.6,11.1s-4.5-.5-6-1.3c-1.4,1-1.8,1.6-1.8,2.7,0,1.7,1.5,2.3,5.4,2.4l4.7.2c6.8.3,9.5,2.2,9.5,6.2s-7.1,10.9-16.3,10.9-9.7-2-9.7-5.7,1.5-4.8,4.3-6.2c-1.3-.9-2-2.1-2-3.8,0-2.7,1.7-5.1,5.3-7.2-2-1.4-3-3.5-3-6.1,0-6.4,5.5-11.1,12.6-11.1s4.7.5,6.3,1.4l8.2-1.9h0ZM160.1,43.5c-2.5-.1-4.5-.5-5.9-1.2-2.6,1.3-4,2.9-4,5.5s3.4,5.2,8.9,5.2,10.7-2.4,10.7-5.9-1.4-3.2-4.6-3.4l-5.1-.2h0ZM168.2,25.7c0-5.9-2.1-10.8-4.7-10.8s-2.1,2-2.1,6c0,5.8,2.1,10.8,4.6,10.8s2.2-2.3,2.2-6Z"/>
      <path class="st0" d="M213.1,31.5c-1.6,3.6-4.8,11.6-10.9,11.6s-5-1.9-4.4-5.6l1.1-6c-3.6,8.5-7.4,11.5-11,11.5s-5.4-2.8-4.5-7.4l2.5-14.8c.2-1-.2-2.1-1.6-2.1-2.5,0-4.7,4.6-5.1,4.9h-.3c1.6-3.3,4.5-9.8,10.8-9.8s5,2,4.4,5.6l-2.8,15.7c-.3,2-.3,3.5,1.2,3.5s4.6-3.6,7-10.3l2.4-13.7h7.8l-3.8,22c-.3,1.5.4,1.6.9,1.6,2.9,0,5.5-6.1,5.9-6.8h.3s0,0,0,0Z"/>
      <path class="st0" d="M245,31.5c-1.4,3.1-4.6,11.6-10.9,11.6s-5-2.2-4.4-5.6l1.1-6.2c-1.6,4.6-4.9,11.7-11,11.7s-5.7-2.3-5.7-7.7c0-10.9,7.9-21.5,15.7-21.5s3.6,1.5,4,3.2c2.5-.7,5.2-1.8,7.8-4.2h.2l-4,23.8c-.2,1.3.3,1.5.9,1.5,3.1,0,5.7-6.4,6-6.8h.3s0,0,0,0ZM232.9,19c.2-2-.7-4.1-2.9-4.1-4.1,0-8.5,7.8-8.5,17.3s1.2,6.1,2.8,6.1c3.4,0,6.7-8.6,7.1-10.2l1.5-9.1h0Z"/>
      <path class="st0" d="M271.8,18.1c0,2.9-1.9,5.1-4.9,5.1s-3.1-.7-3.8-1.6c1.3-1,1.5-1.8,1.5-2.5s-.4-1.1-.8-1.1c-.9,0-1.6,1.1-5.7,10.8l-2.5,13.8h-7.8l3.8-22c.2-1-.5-1.8-1.6-1.8-2.5,0-4.7,4.6-5.1,4.9h-.3c1.6-3.2,4.4-9.8,10.8-9.8s5,2,4.4,5.6l-1.1,6.3c3.3-10.4,5.8-11.9,9.1-11.9s3.9,1.6,3.9,4.2h0Z"/>
      <path class="st0" d="M274.7,37.5l2.9-16.9c.2-1-.5-1.8-1.6-1.8-2.6,0-4.9,5.1-5.1,4.9h-.3c1.5-2.8,4.2-9.8,10.8-9.8s5,2.1,4.4,5.6l-3,17c-.2,1.1.1,1.7.9,1.7,3.1,0,5.8-6.9,5.9-6.8h.3c-1.2,2.6-4.4,11.7-10.9,11.7s-5-1.9-4.4-5.6ZM277.4,5c0-2.9,2.2-5,5.1-5s5,2.1,5,5-2.3,5-5,5-5.1-2.2-5.1-5Z"/>
      <path class="st0" d="M316.4,14.6l-.2.9-17.7,26.1c6.1-.9,12.7-5.1,15.4-11.4h.3l-3.8,12.5h-21.4l18.2-27c-6.7.9-12.6,5.2-15.3,10.4h-.3l3.6-11.5h21,0Z"/>
      <path class="st0" d="M317.6,32.5c0-10,7.3-18.6,15.7-18.6s10.2,4.4,10.2,10.6c0,10.2-7.3,18.6-16,18.6s-9.9-4.3-9.9-10.6h0ZM335.8,23.3c0-4.6-.8-7.9-2.8-7.9-4.7,0-7.6,11.5-7.6,18.3s.9,8,3,8c4.7,0,7.4-11.9,7.4-18.5Z"/>
    </g>
  </g>
</svg>